<?xml version="1.0" encoding="UTF-8" standalone="no"?>
<!DOCTYPE svg PUBLIC "-//W3C//DTD SVG 1.1//EN"
 "http://www.w3.org/Graphics/SVG/1.1/DTD/svg11.dtd">
<!-- Generated by graphviz version 8.1.0 (20230707.0739)
 -->
<!-- Title: G Pages: 1 -->
<svg width="680pt" height="842pt"
 viewBox="0.00 0.00 680.45 841.70" xmlns="http://www.w3.org/2000/svg" xmlns:xlink="http://www.w3.org/1999/xlink">
<g id="graph0" class="graph" transform="scale(1 1) rotate(0) translate(21.6 820.1)">
<title>G</title>
<polygon fill="#111111" stroke="none" points="-21.6,21.6 -21.6,-820.1 658.85,-820.1 658.85,21.6 -21.6,21.6"/>
<!-- components/blocks/DropDownFilter.tsx -->
<g id="node1" class="node">
<title>components/blocks/DropDownFilter.tsx</title>
<path fill="none" stroke="#cfffac" d="M272.21,-196.5C272.21,-196.5 24.29,-196.5 24.29,-196.5 20.21,-196.5 16.12,-192.42 16.12,-188.33 16.12,-188.33 16.12,-180.17 16.12,-180.17 16.12,-176.08 20.21,-172 24.29,-172 24.29,-172 272.21,-172 272.21,-172 276.29,-172 280.38,-176.08 280.38,-180.17 280.38,-180.17 280.38,-188.33 280.38,-188.33 280.38,-192.42 276.29,-196.5 272.21,-196.5"/>
<text text-anchor="middle" x="148.25" y="-179.2" font-family="Arial" font-size="14.00" fill="#cfffac">components/blocks/DropDownFilter.tsx</text>
</g>
<!-- components/blocks/Navigation.tsx -->
<g id="node2" class="node">
<title>components/blocks/Navigation.tsx</title>
<path fill="none" stroke="#cfffac" d="M591.96,-454.5C591.96,-454.5 377.79,-454.5 377.79,-454.5 373.71,-454.5 369.62,-450.42 369.62,-446.33 369.62,-446.33 369.62,-438.17 369.62,-438.17 369.62,-434.08 373.71,-430 377.79,-430 377.79,-430 591.96,-430 591.96,-430 596.04,-430 600.12,-434.08 600.12,-438.17 600.12,-438.17 600.12,-446.33 600.12,-446.33 600.12,-450.42 596.04,-454.5 591.96,-454.5"/>
<text text-anchor="middle" x="484.88" y="-437.2" font-family="Arial" font-size="14.00" fill="#cfffac">components/blocks/Navigation.tsx</text>
</g>
<!-- components/compounds/LoginModal.tsx -->
<g id="node3" class="node">
<title>components/compounds/LoginModal.tsx</title>
<path fill="none" stroke="#cfffac" d="M612.96,-411.5C612.96,-411.5 356.79,-411.5 356.79,-411.5 352.71,-411.5 348.62,-407.42 348.62,-403.33 348.62,-403.33 348.62,-395.17 348.62,-395.17 348.62,-391.08 352.71,-387 356.79,-387 356.79,-387 612.96,-387 612.96,-387 617.04,-387 621.12,-391.08 621.12,-395.17 621.12,-395.17 621.12,-403.33 621.12,-403.33 621.12,-407.42 617.04,-411.5 612.96,-411.5"/>
<text text-anchor="middle" x="484.88" y="-394.2" font-family="Arial" font-size="14.00" fill="#cfffac">components/compounds/LoginModal.tsx</text>
</g>
<!-- components/compounds/LogoutModal.tsx -->
<g id="node4" class="node">
<title>components/compounds/LogoutModal.tsx</title>
<path fill="none" stroke="#cfffac" d="M617.46,-368.5C617.46,-368.5 352.29,-368.5 352.29,-368.5 348.21,-368.5 344.12,-364.42 344.12,-360.33 344.12,-360.33 344.12,-352.17 344.12,-352.17 344.12,-348.08 348.21,-344 352.29,-344 352.29,-344 617.46,-344 617.46,-344 621.54,-344 625.62,-348.08 625.62,-352.17 625.62,-352.17 625.62,-360.33 625.62,-360.33 625.62,-364.42 621.54,-368.5 617.46,-368.5"/>
<text text-anchor="middle" x="484.88" y="-351.2" font-family="Arial" font-size="14.00" fill="#cfffac">components/compounds/LogoutModal.tsx</text>
</g>
<!-- components/compounds/Menu.tsx -->
<g id="node5" class="node">
<title>components/compounds/Menu.tsx</title>
<path fill="none" stroke="#cfffac" d="M593.46,-325.5C593.46,-325.5 376.29,-325.5 376.29,-325.5 372.21,-325.5 368.12,-321.42 368.12,-317.33 368.12,-317.33 368.12,-309.17 368.12,-309.17 368.12,-305.08 372.21,-301 376.29,-301 376.29,-301 593.46,-301 593.46,-301 597.54,-301 601.62,-305.08 601.62,-309.17 601.62,-309.17 601.62,-317.33 601.62,-317.33 601.62,-321.42 597.54,-325.5 593.46,-325.5"/>
<text text-anchor="middle" x="484.88" y="-308.2" font-family="Arial" font-size="14.00" fill="#cfffac">components/compounds/Menu.tsx</text>
</g>
<!-- components/compounds/SocialAuthModal.tsx -->
<g id="node6" class="node">
<title>components/compounds/SocialAuthModal.tsx</title>
<path fill="none" stroke="#cfffac" d="M629.08,-282.5C629.08,-282.5 340.67,-282.5 340.67,-282.5 336.58,-282.5 332.5,-278.42 332.5,-274.33 332.5,-274.33 332.5,-266.17 332.5,-266.17 332.5,-262.08 336.58,-258 340.67,-258 340.67,-258 629.08,-258 629.08,-258 633.17,-258 637.25,-262.08 637.25,-266.17 637.25,-266.17 637.25,-274.33 637.25,-274.33 637.25,-278.42 633.17,-282.5 629.08,-282.5"/>
<text text-anchor="middle" x="484.88" y="-265.2" font-family="Arial" font-size="14.00" fill="#cfffac">components/compounds/SocialAuthModal.tsx</text>
</g>
<!-- components/elements/DropDownItem.tsx -->
<g id="node7" class="node">
<title>components/elements/DropDownItem.tsx</title>
<path fill="none" stroke="#cfffac" d="M279.33,-315.5C279.33,-315.5 17.17,-315.5 17.17,-315.5 13.08,-315.5 9,-311.42 9,-307.33 9,-307.33 9,-299.17 9,-299.17 9,-295.08 13.08,-291 17.17,-291 17.17,-291 279.33,-291 279.33,-291 283.42,-291 287.5,-295.08 287.5,-299.17 287.5,-299.17 287.5,-307.33 287.5,-307.33 287.5,-311.42 283.42,-315.5 279.33,-315.5"/>
<text text-anchor="middle" x="148.25" y="-298.2" font-family="Arial" font-size="14.00" fill="#cfffac">components/elements/DropDownItem.tsx</text>
</g>
<!-- components/elements/HomeLogo.tsx -->
<g id="node8" class="node">
<title>components/elements/HomeLogo.tsx</title>
<path fill="none" stroke="#cfffac" d="M603.58,-239.5C603.58,-239.5 366.17,-239.5 366.17,-239.5 362.08,-239.5 358,-235.42 358,-231.33 358,-231.33 358,-223.17 358,-223.17 358,-219.08 362.08,-215 366.17,-215 366.17,-215 603.58,-215 603.58,-215 607.67,-215 611.75,-219.08 611.75,-223.17 611.75,-223.17 611.75,-231.33 611.75,-231.33 611.75,-235.42 607.67,-239.5 603.58,-239.5"/>
<text text-anchor="middle" x="484.88" y="-222.2" font-family="Arial" font-size="14.00" fill="#cfffac">components/elements/HomeLogo.tsx</text>
</g>
<!-- components/elements/NavItem.tsx -->
<g id="node9" class="node">
<title>components/elements/NavItem.tsx</title>
<path fill="none" stroke="#cfffac" d="M594.21,-196.5C594.21,-196.5 375.54,-196.5 375.54,-196.5 371.46,-196.5 367.38,-192.42 367.38,-188.33 367.38,-188.33 367.38,-180.17 367.38,-180.17 367.38,-176.08 371.46,-172 375.54,-172 375.54,-172 594.21,-172 594.21,-172 598.29,-172 602.38,-176.08 602.38,-180.17 602.38,-180.17 602.38,-188.33 602.38,-188.33 602.38,-192.42 598.29,-196.5 594.21,-196.5"/>
<text text-anchor="middle" x="484.88" y="-179.2" font-family="Arial" font-size="14.00" fill="#cfffac">components/elements/NavItem.tsx</text>
</g>
<!-- components/index.ts -->
<g id="node10" class="node">
<title>components/index.ts</title>
<path fill="none" stroke="#c6c5fe" d="M213.71,-239.5C213.71,-239.5 82.79,-239.5 82.79,-239.5 78.71,-239.5 74.62,-235.42 74.62,-231.33 74.62,-231.33 74.62,-223.17 74.62,-223.17 74.62,-219.08 78.71,-215 82.79,-215 82.79,-215 213.71,-215 213.71,-215 217.79,-215 221.88,-219.08 221.88,-223.17 221.88,-223.17 221.88,-231.33 221.88,-231.33 221.88,-235.42 217.79,-239.5 213.71,-239.5"/>
<text text-anchor="middle" x="148.25" y="-222.2" font-family="Arial" font-size="14.00" fill="#c6c5fe">components/index.ts</text>
</g>
<!-- components/index.ts&#45;&gt;components/blocks/Navigation.tsx -->
<g id="edge1" class="edge">
<title>components/index.ts&#45;&gt;components/blocks/Navigation.tsx</title>
<path fill="none" stroke="#757575" d="M222.09,-239.77C248.81,-247.78 277.21,-260.88 296.5,-282.25 338.97,-329.3 285.27,-377.98 332.5,-420.25 340.36,-427.28 349.42,-432.66 359.12,-436.73"/>
<polygon fill="#757575" stroke="#757575" points="357.85,-440.36 368.44,-440.52 360.26,-433.79 357.85,-440.36"/>
</g>
<!-- components/index.ts&#45;&gt;components/compounds/LoginModal.tsx -->
<g id="edge2" class="edge">
<title>components/index.ts&#45;&gt;components/compounds/LoginModal.tsx</title>
<path fill="none" stroke="#757575" d="M217.92,-239.96C245.32,-248.06 275.32,-261.17 296.5,-282.25 328.5,-314.1 297.29,-348.98 332.5,-377.25 334.63,-378.96 336.83,-380.57 339.1,-382.08"/>
<polygon fill="#757575" stroke="#757575" points="336.75,-385.35 347.13,-387.44 340.32,-379.33 336.75,-385.35"/>
</g>
<!-- components/index.ts&#45;&gt;components/compounds/LogoutModal.tsx -->
<g id="edge3" class="edge">
<title>components/index.ts&#45;&gt;components/compounds/LogoutModal.tsx</title>
<path fill="none" stroke="#757575" d="M206.81,-239.98C235.84,-248.46 270.33,-261.89 296.5,-282.25 318.68,-299.51 308.61,-319.44 332.5,-334.25 335.2,-335.92 337.97,-337.49 340.82,-338.95"/>
<polygon fill="#757575" stroke="#757575" points="339.16,-342.5 349.71,-343.54 342.11,-336.15 339.16,-342.5"/>
</g>
<!-- components/index.ts&#45;&gt;components/compounds/Menu.tsx -->
<g id="edge4" class="edge">
<title>components/index.ts&#45;&gt;components/compounds/Menu.tsx</title>
<path fill="none" stroke="#757575" d="M179.83,-239.96C215.78,-254.43 277.51,-277.78 332.5,-291.25 343.87,-294.03 355.82,-296.51 367.8,-298.71"/>
<polygon fill="#757575" stroke="#757575" points="366.87,-302.27 377.32,-300.56 368.08,-295.38 366.87,-302.27"/>
</g>
<!-- components/index.ts&#45;&gt;components/compounds/SocialAuthModal.tsx -->
<g id="edge5" class="edge">
<title>components/index.ts&#45;&gt;components/compounds/SocialAuthModal.tsx</title>
<path fill="none" stroke="#757575" d="M222.27,-236.63C266.61,-242.33 324.07,-249.72 373.84,-256.11"/>
<polygon fill="#757575" stroke="#757575" points="373.3,-259.7 383.67,-257.5 374.2,-252.76 373.3,-259.7"/>
</g>
<!-- components/index.ts&#45;&gt;components/elements/HomeLogo.tsx -->
<g id="edge6" class="edge">
<title>components/index.ts&#45;&gt;components/elements/HomeLogo.tsx</title>
<path fill="none" stroke="#757575" d="M222.27,-227.25C258.79,-227.25 304.21,-227.25 346.9,-227.25"/>
<polygon fill="#757575" stroke="#757575" points="346.69,-230.75 356.69,-227.25 346.69,-223.75 346.69,-230.75"/>
</g>
<!-- components/index.ts&#45;&gt;components/elements/NavItem.tsx -->
<g id="edge7" class="edge">
<title>components/index.ts&#45;&gt;components/elements/NavItem.tsx</title>
<path fill="none" stroke="#757575" d="M222.27,-217.87C266.61,-212.17 324.07,-204.78 373.84,-198.39"/>
<polygon fill="#757575" stroke="#757575" points="374.2,-201.74 383.67,-197 373.3,-194.8 374.2,-201.74"/>
</g>
<!-- components/layouts/MainLayout.tsx -->
<g id="node11" class="node">
<title>components/layouts/MainLayout.tsx</title>
<path fill="none" stroke="#cfffac" d="M596.46,-153.5C596.46,-153.5 373.29,-153.5 373.29,-153.5 369.21,-153.5 365.12,-149.42 365.12,-145.33 365.12,-145.33 365.12,-137.17 365.12,-137.17 365.12,-133.08 369.21,-129 373.29,-129 373.29,-129 596.46,-129 596.46,-129 600.54,-129 604.62,-133.08 604.62,-137.17 604.62,-137.17 604.62,-145.33 604.62,-145.33 604.62,-149.42 600.54,-153.5 596.46,-153.5"/>
<text text-anchor="middle" x="484.88" y="-136.2" font-family="Arial" font-size="14.00" fill="#cfffac">components/layouts/MainLayout.tsx</text>
</g>
<!-- components/index.ts&#45;&gt;components/layouts/MainLayout.tsx -->
<g id="edge8" class="edge">
<title>components/index.ts&#45;&gt;components/layouts/MainLayout.tsx</title>
<path fill="none" stroke="#757575" d="M222.2,-226.55C247.01,-223.73 274.11,-217.64 296.5,-205.25 318.01,-193.35 310.96,-175.11 332.5,-163.25 339.38,-159.46 346.69,-156.26 354.23,-153.55"/>
<polygon fill="#757575" stroke="#757575" points="355.23,-156.58 363.65,-150.16 353.06,-149.93 355.23,-156.58"/>
</g>
<!-- components/sections/AuthModal.tsx -->
<g id="node12" class="node">
<title>components/sections/AuthModal.tsx</title>
<path fill="none" stroke="#cfffac" d="M598.71,-110.5C598.71,-110.5 371.04,-110.5 371.04,-110.5 366.96,-110.5 362.88,-106.42 362.88,-102.33 362.88,-102.33 362.88,-94.17 362.88,-94.17 362.88,-90.08 366.96,-86 371.04,-86 371.04,-86 598.71,-86 598.71,-86 602.79,-86 606.88,-90.08 606.88,-94.17 606.88,-94.17 606.88,-102.33 606.88,-102.33 606.88,-106.42 602.79,-110.5 598.71,-110.5"/>
<text text-anchor="middle" x="484.88" y="-93.2" font-family="Arial" font-size="14.00" fill="#cfffac">components/sections/AuthModal.tsx</text>
</g>
<!-- components/index.ts&#45;&gt;components/sections/AuthModal.tsx -->
<g id="edge9" class="edge">
<title>components/index.ts&#45;&gt;components/sections/AuthModal.tsx</title>
<path fill="none" stroke="#757575" d="M222.37,-230.48C248.05,-228.17 275.66,-221.4 296.5,-205.25 328.93,-180.12 300.02,-145.31 332.5,-120.25 338.72,-115.45 345.51,-111.47 352.68,-108.18"/>
<polygon fill="#757575" stroke="#757575" points="353.72,-111.13 361.65,-104.11 351.07,-104.65 353.72,-111.13"/>
</g>
<!-- components/sections/Footer.tsx -->
<g id="node13" class="node">
<title>components/sections/Footer.tsx</title>
<path fill="none" stroke="#cfffac" d="M586.33,-67.5C586.33,-67.5 383.42,-67.5 383.42,-67.5 379.33,-67.5 375.25,-63.42 375.25,-59.33 375.25,-59.33 375.25,-51.17 375.25,-51.17 375.25,-47.08 379.33,-43 383.42,-43 383.42,-43 586.33,-43 586.33,-43 590.42,-43 594.5,-47.08 594.5,-51.17 594.5,-51.17 594.5,-59.33 594.5,-59.33 594.5,-63.42 590.42,-67.5 586.33,-67.5"/>
<text text-anchor="middle" x="484.88" y="-50.2" font-family="Arial" font-size="14.00" fill="#cfffac">components/sections/Footer.tsx</text>
</g>
<!-- components/index.ts&#45;&gt;components/sections/Footer.tsx -->
<g id="edge10" class="edge">
<title>components/index.ts&#45;&gt;components/sections/Footer.tsx</title>
<path fill="none" stroke="#757575" d="M222.01,-231.99C248.25,-229.99 276.33,-223.03 296.5,-205.25 340.83,-166.17 288.09,-116.24 332.5,-77.25 341.84,-69.05 352.82,-63.12 364.53,-58.89"/>
<polygon fill="#757575" stroke="#757575" points="365.5,-61.94 373.99,-55.6 363.4,-55.26 365.5,-61.94"/>
</g>
<!-- components/sections/Header.tsx -->
<g id="node14" class="node">
<title>components/sections/Header.tsx</title>
<path fill="none" stroke="#cfffac" d="M588.58,-24.5C588.58,-24.5 381.17,-24.5 381.17,-24.5 377.08,-24.5 373,-20.42 373,-16.33 373,-16.33 373,-8.17 373,-8.17 373,-4.08 377.08,0 381.17,0 381.17,0 588.58,0 588.58,0 592.67,0 596.75,-4.08 596.75,-8.17 596.75,-8.17 596.75,-16.33 596.75,-16.33 596.75,-20.42 592.67,-24.5 588.58,-24.5"/>
<text text-anchor="middle" x="484.88" y="-7.2" font-family="Arial" font-size="14.00" fill="#cfffac">components/sections/Header.tsx</text>
</g>
<!-- components/index.ts&#45;&gt;components/sections/Header.tsx -->
<g id="edge11" class="edge">
<title>components/index.ts&#45;&gt;components/sections/Header.tsx</title>
<path fill="none" stroke="#757575" d="M222.27,-232.72C248.7,-230.84 276.84,-223.78 296.5,-205.25 353.02,-151.98 275.87,-87.41 332.5,-34.25 341.17,-26.11 351.44,-20.14 362.49,-15.84"/>
<polygon fill="#757575" stroke="#757575" points="363.48,-18.86 371.83,-12.34 361.23,-12.23 363.48,-18.86"/>
</g>
<!-- constants/cities.constant.ts -->
<g id="node15" class="node">
<title>constants/cities.constant.ts</title>
<path fill="none" stroke="#cfffac" d="M232.83,-422.5C232.83,-422.5 63.67,-422.5 63.67,-422.5 59.58,-422.5 55.5,-418.42 55.5,-414.33 55.5,-414.33 55.5,-406.17 55.5,-406.17 55.5,-402.08 59.58,-398 63.67,-398 63.67,-398 232.83,-398 232.83,-398 236.92,-398 241,-402.08 241,-406.17 241,-406.17 241,-414.33 241,-414.33 241,-418.42 236.92,-422.5 232.83,-422.5"/>
<text text-anchor="middle" x="148.25" y="-405.2" font-family="Arial" font-size="14.00" fill="#cfffac">constants/cities.constant.ts</text>
</g>
<!-- constants/navigation.ts -->
<g id="node16" class="node">
<title>constants/navigation.ts</title>
<path fill="none" stroke="#c6c5fe" d="M219.33,-497.5C219.33,-497.5 77.17,-497.5 77.17,-497.5 73.08,-497.5 69,-493.42 69,-489.33 69,-489.33 69,-481.17 69,-481.17 69,-477.08 73.08,-473 77.17,-473 77.17,-473 219.33,-473 219.33,-473 223.42,-473 227.5,-477.08 227.5,-481.17 227.5,-481.17 227.5,-489.33 227.5,-489.33 227.5,-493.42 223.42,-497.5 219.33,-497.5"/>
<text text-anchor="middle" x="148.25" y="-480.2" font-family="Arial" font-size="14.00" fill="#c6c5fe">constants/navigation.ts</text>
</g>
<!-- constants/routes.ts -->
<g id="node17" class="node">
<title>constants/routes.ts</title>
<path fill="none" stroke="#cfffac" d="M544.33,-497.5C544.33,-497.5 425.42,-497.5 425.42,-497.5 421.33,-497.5 417.25,-493.42 417.25,-489.33 417.25,-489.33 417.25,-481.17 417.25,-481.17 417.25,-477.08 421.33,-473 425.42,-473 425.42,-473 544.33,-473 544.33,-473 548.42,-473 552.5,-477.08 552.5,-481.17 552.5,-481.17 552.5,-489.33 552.5,-489.33 552.5,-493.42 548.42,-497.5 544.33,-497.5"/>
<text text-anchor="middle" x="484.88" y="-480.2" font-family="Arial" font-size="14.00" fill="#cfffac">constants/routes.ts</text>
</g>
<!-- constants/navigation.ts&#45;&gt;constants/routes.ts -->
<g id="edge12" class="edge">
<title>constants/navigation.ts&#45;&gt;constants/routes.ts</title>
<path fill="none" stroke="#757575" d="M227.7,-485.25C281.47,-485.25 352.48,-485.25 406.1,-485.25"/>
<polygon fill="#757575" stroke="#757575" points="405.92,-488.75 415.92,-485.25 405.92,-481.75 405.92,-488.75"/>
</g>
<!-- interfaces/components/blocks/Navigation.tsx -->
<g id="node18" class="node">
<title>interfaces/components/blocks/Navigation.tsx</title>
<path fill="none" stroke="#c6c5fe" d="M288.33,-540.5C288.33,-540.5 8.17,-540.5 8.17,-540.5 4.08,-540.5 0,-536.42 0,-532.33 0,-532.33 0,-524.17 0,-524.17 0,-520.08 4.08,-516 8.17,-516 8.17,-516 288.33,-516 288.33,-516 292.42,-516 296.5,-520.08 296.5,-524.17 296.5,-524.17 296.5,-532.33 296.5,-532.33 296.5,-536.42 292.42,-540.5 288.33,-540.5"/>
<text text-anchor="middle" x="148.25" y="-523.2" font-family="Arial" font-size="14.00" fill="#c6c5fe">interfaces/components/blocks/Navigation.tsx</text>
</g>
<!-- interfaces/components/elements/NavItem.ts -->
<g id="node19" class="node">
<title>interfaces/components/elements/NavItem.ts</title>
<path fill="none" stroke="#cfffac" d="M623.83,-540.5C623.83,-540.5 345.92,-540.5 345.92,-540.5 341.83,-540.5 337.75,-536.42 337.75,-532.33 337.75,-532.33 337.75,-524.17 337.75,-524.17 337.75,-520.08 341.83,-516 345.92,-516 345.92,-516 623.83,-516 623.83,-516 627.92,-516 632,-520.08 632,-524.17 632,-524.17 632,-532.33 632,-532.33 632,-536.42 627.92,-540.5 623.83,-540.5"/>
<text text-anchor="middle" x="484.88" y="-523.2" font-family="Arial" font-size="14.00" fill="#cfffac">interfaces/components/elements/NavItem.ts</text>
</g>
<!-- interfaces/components/blocks/Navigation.tsx&#45;&gt;interfaces/components/elements/NavItem.ts -->
<g id="edge13" class="edge">
<title>interfaces/components/blocks/Navigation.tsx&#45;&gt;interfaces/components/elements/NavItem.ts</title>
<path fill="none" stroke="#757575" d="M297,-528.25C306.83,-528.25 316.76,-528.25 326.64,-528.25"/>
<polygon fill="#757575" stroke="#757575" points="326.34,-531.75 336.34,-528.25 326.34,-524.75 326.34,-531.75"/>
</g>
<!-- pages/_app.tsx -->
<g id="node20" class="node">
<title>pages/_app.tsx</title>
<path fill="none" stroke="#cfffac" d="M196.83,-583.5C196.83,-583.5 99.67,-583.5 99.67,-583.5 95.58,-583.5 91.5,-579.42 91.5,-575.33 91.5,-575.33 91.5,-567.17 91.5,-567.17 91.5,-563.08 95.58,-559 99.67,-559 99.67,-559 196.83,-559 196.83,-559 200.92,-559 205,-563.08 205,-567.17 205,-567.17 205,-575.33 205,-575.33 205,-579.42 200.92,-583.5 196.83,-583.5"/>
<text text-anchor="middle" x="148.25" y="-566.2" font-family="Arial" font-size="14.00" fill="#cfffac">pages/_app.tsx</text>
</g>
<!-- pages/_document.tsx -->
<g id="node21" class="node">
<title>pages/_document.tsx</title>
<path fill="none" stroke="#cfffac" d="M216.33,-626.5C216.33,-626.5 80.17,-626.5 80.17,-626.5 76.08,-626.5 72,-622.42 72,-618.33 72,-618.33 72,-610.17 72,-610.17 72,-606.08 76.08,-602 80.17,-602 80.17,-602 216.33,-602 216.33,-602 220.42,-602 224.5,-606.08 224.5,-610.17 224.5,-610.17 224.5,-618.33 224.5,-618.33 224.5,-622.42 220.42,-626.5 216.33,-626.5"/>
<text text-anchor="middle" x="148.25" y="-609.2" font-family="Arial" font-size="14.00" fill="#cfffac">pages/_document.tsx</text>
</g>
<!-- pages/index.tsx -->
<g id="node22" class="node">
<title>pages/index.tsx</title>
<path fill="none" stroke="#cfffac" d="M197.58,-669.5C197.58,-669.5 98.92,-669.5 98.92,-669.5 94.83,-669.5 90.75,-665.42 90.75,-661.33 90.75,-661.33 90.75,-653.17 90.75,-653.17 90.75,-649.08 94.83,-645 98.92,-645 98.92,-645 197.58,-645 197.58,-645 201.67,-645 205.75,-649.08 205.75,-653.17 205.75,-653.17 205.75,-661.33 205.75,-661.33 205.75,-665.42 201.67,-669.5 197.58,-669.5"/>
<text text-anchor="middle" x="148.25" y="-652.2" font-family="Arial" font-size="14.00" fill="#cfffac">pages/index.tsx</text>
</g>
<!-- redux/Provider.tsx -->
<g id="node23" class="node">
<title>redux/Provider.tsx</title>
<path fill="none" stroke="#cfffac" d="M205.08,-712.5C205.08,-712.5 91.42,-712.5 91.42,-712.5 87.33,-712.5 83.25,-708.42 83.25,-704.33 83.25,-704.33 83.25,-696.17 83.25,-696.17 83.25,-692.08 87.33,-688 91.42,-688 91.42,-688 205.08,-688 205.08,-688 209.17,-688 213.25,-692.08 213.25,-696.17 213.25,-696.17 213.25,-704.33 213.25,-704.33 213.25,-708.42 209.17,-712.5 205.08,-712.5"/>
<text text-anchor="middle" x="148.25" y="-695.2" font-family="Arial" font-size="14.00" fill="#cfffac">redux/Provider.tsx</text>
</g>
<!-- redux/features/socketSlice.ts -->
<g id="node24" class="node">
<title>redux/features/socketSlice.ts</title>
<path fill="none" stroke="#cfffac" d="M239.58,-755.5C239.58,-755.5 56.92,-755.5 56.92,-755.5 52.83,-755.5 48.75,-751.42 48.75,-747.33 48.75,-747.33 48.75,-739.17 48.75,-739.17 48.75,-735.08 52.83,-731 56.92,-731 56.92,-731 239.58,-731 239.58,-731 243.67,-731 247.75,-735.08 247.75,-739.17 247.75,-739.17 247.75,-747.33 247.75,-747.33 247.75,-751.42 243.67,-755.5 239.58,-755.5"/>
<text text-anchor="middle" x="148.25" y="-738.2" font-family="Arial" font-size="14.00" fill="#cfffac">redux/features/socketSlice.ts</text>
</g>
<!-- redux/sotre.tsx -->
<g id="node25" class="node">
<title>redux/sotre.tsx</title>
<path fill="none" stroke="#cfffac" d="M194.58,-798.5C194.58,-798.5 101.92,-798.5 101.92,-798.5 97.83,-798.5 93.75,-794.42 93.75,-790.33 93.75,-790.33 93.75,-782.17 93.75,-782.17 93.75,-778.08 97.83,-774 101.92,-774 101.92,-774 194.58,-774 194.58,-774 198.67,-774 202.75,-778.08 202.75,-782.17 202.75,-782.17 202.75,-790.33 202.75,-790.33 202.75,-794.42 198.67,-798.5 194.58,-798.5"/>
<text text-anchor="middle" x="148.25" y="-781.2" font-family="Arial" font-size="14.00" fill="#cfffac">redux/sotre.tsx</text>
</g>
</g>
</svg>
